# MagicaVoxel @ Ephtracy

# group
o 

# material
mtllib log.mtl
usemtl palette

# normals
vn -1 0 0
vn 1 0 0
vn 0 0 1
vn 0 0 -1
vn 0 -1 0
vn 0 1 0

# texcoords
vt 0.373047 0.5
vt 0.537109 0.5

# verts
v 0.7 2 -1.5
v 0.7 2 -2.6
v 0.7 2.2 -1.8
v 0.7 2.2 -1.9
v 0.7 2.2 -2.3
v 0.7 2.2 -2.4
v 0.7 2.3 -1.5
v 0.7 2.3 -1.8
v 0.7 2.3 -1.9
v 0.7 2.3 -2.3
v 0.7 2.3 -2.4
v 0.7 2.3 -2.6
v 3.7 2 -1.5
v 3.7 2 -2.6
v 3.7 2.3 -1.5
v 3.7 2.3 -2.6
v 0.7 2 -1.5
v 0.7 2.3 -1.5
v 3.7 2 -1.5
v 3.7 2.3 -1.5
v 0.7 2 -2.6
v 0.7 2.3 -2.6
v 3.7 2 -2.6
v 3.7 2.3 -2.6
v 0.7 2 -1.5
v 3.7 2 -1.5
v 0.7 2 -2.6
v 3.7 2 -2.6
v 0.7 2.3 -1.5
v 3.7 2.3 -1.5
v 0.7 2.3 -1.8
v 3.5 2.3 -1.8
v 0.7 2.3 -1.9
v 3.5 2.3 -1.9
v 0.7 2.3 -2.3
v 3 2.3 -2.3
v 0.7 2.3 -2.4
v 3 2.3 -2.4
v 0.7 2.3 -2.6
v 3.7 2.3 -2.6

# faces
f 3/2/1 2/2/1 1/2/1
f 4/2/1 2/2/1 3/2/1
f 5/2/1 2/2/1 4/2/1
f 6/2/1 2/2/1 5/2/1
f 7/2/1 3/2/1 1/2/1
f 8/1/1 4/1/1 3/1/1
f 8/2/1 3/2/1 7/2/1
f 9/2/1 5/2/1 4/2/1
f 9/1/1 4/1/1 8/1/1
f 10/1/1 6/1/1 5/1/1
f 10/2/1 5/2/1 9/2/1
f 11/2/1 2/2/1 6/2/1
f 11/1/1 6/1/1 10/1/1
f 12/2/1 2/2/1 11/2/1
f 13/2/2 14/2/2 15/2/2
f 15/2/2 14/2/2 16/2/2
f 19/2/3 18/2/3 17/2/3
f 20/2/3 18/2/3 19/2/3
f 21/2/4 22/2/4 23/2/4
f 23/2/4 22/2/4 24/2/4
f 27/2/5 26/2/5 25/2/5
f 28/2/5 26/2/5 27/2/5
f 29/2/6 30/2/6 31/2/6
f 31/2/6 30/2/6 32/2/6
f 31/1/6 32/1/6 33/1/6
f 32/2/6 30/2/6 34/2/6
f 33/1/6 32/1/6 34/1/6
f 33/2/6 34/2/6 35/2/6
f 35/2/6 34/2/6 36/2/6
f 35/1/6 36/1/6 37/1/6
f 36/2/6 34/2/6 38/2/6
f 37/1/6 36/1/6 38/1/6
f 37/2/6 38/2/6 39/2/6
f 34/2/6 30/2/6 40/2/6
f 39/2/6 38/2/6 40/2/6
f 38/2/6 34/2/6 40/2/6
