# MagicaVoxel @ Ephtracy

# group
o 

# material
mtllib railroad.mtl
usemtl palette

# normals
vn -1 0 0
vn 1 0 0
vn 0 0 1
vn 0 0 -1
vn 0 -1 0
vn 0 1 0

# texcoords
vt 0.373047 0.5
vt 0.982422 0.5

# verts
v 0.8 2 -0.9
v 0.8 2 -1.3
v 0.8 2 -3.9
v 0.8 2 -4.3
v 0.8 2 -6.8
v 0.8 2 -7.6
v 0.8 2 -8.5
v 0.8 2 -9.3
v 0.8 2.1 -3.9
v 0.8 2.1 -4.3
v 0.8 2.2 -0.9
v 0.8 2.2 -1.3
v 0.8 2.2 -6.8
v 0.8 2.2 -7.6
v 0.8 2.2 -8.5
v 0.8 2.2 -9.3
v 0.9 2 0
v 0.9 2 -0.9
v 0.9 2 -1.3
v 0.9 2 -3.9
v 0.9 2 -4.3
v 0.9 2 -6.8
v 0.9 2 -7.6
v 0.9 2 -8.5
v 0.9 2 -9.3
v 0.9 2 -10
v 0.9 2.1 -3.9
v 0.9 2.1 -4.3
v 0.9 2.2 0
v 0.9 2.2 -0.9
v 0.9 2.2 -1.1
v 0.9 2.2 -1.2
v 0.9 2.2 -1.3
v 0.9 2.2 -2.5
v 0.9 2.2 -2.7
v 0.9 2.2 -5
v 0.9 2.2 -5.7
v 0.9 2.2 -6.8
v 0.9 2.2 -7.6
v 0.9 2.2 -8.5
v 0.9 2.2 -9.3
v 0.9 2.2 -10
v 0.9 2.3 -1.1
v 0.9 2.3 -1.2
v 0.9 2.3 -2.5
v 0.9 2.3 -2.7
v 0.9 2.3 -5
v 0.9 2.3 -5.7
v 3 2 0
v 3 2 -0.9
v 3 2 -1.3
v 3 2 -2.5
v 3 2 -2.7
v 3 2 -3.9
v 3 2 -4.3
v 3 2 -5
v 3 2 -5.7
v 3 2 -6.8
v 3 2 -7.6
v 3 2 -8.5
v 3 2 -9.3
v 3 2 -10
v 3 2.1 0
v 3 2.1 -0.9
v 3 2.1 -1.3
v 3 2.1 -2.5
v 3 2.1 -2.7
v 3 2.1 -3.9
v 3 2.1 -4.3
v 3 2.1 -5
v 3 2.1 -5.7
v 3 2.1 -6.8
v 3 2.1 -7.6
v 3 2.1 -8.5
v 3 2.1 -9.3
v 3 2.1 -10
v 1 2 0
v 1 2 -0.9
v 1 2 -1.3
v 1 2 -2.5
v 1 2 -2.7
v 1 2 -3.9
v 1 2 -4.3
v 1 2 -5
v 1 2 -5.7
v 1 2 -6.8
v 1 2 -7.6
v 1 2 -8.5
v 1 2 -9.3
v 1 2 -10
v 1 2.1 -3.9
v 1 2.1 -4.3
v 1 2.2 0
v 1 2.2 -0.9
v 1 2.2 -1.3
v 1 2.2 -2.5
v 1 2.2 -2.7
v 1 2.2 -5
v 1 2.2 -5.7
v 1 2.2 -6.8
v 1 2.2 -7.6
v 1 2.2 -8.5
v 1 2.2 -9.3
v 1 2.2 -10
v 3 2.1 -0.9
v 3 2.1 -1.1
v 3 2.1 -1.2
v 3 2.1 -1.3
v 3 2.1 -2.5
v 3 2.1 -2.7
v 3 2.1 -8.5
v 3 2.1 -9.3
v 3 2.2 -0.9
v 3 2.2 -1.1
v 3 2.2 -1.2
v 3 2.2 -1.3
v 3 2.2 -8.5
v 3 2.2 -9.3
v 3 2.3 -2.5
v 3 2.3 -2.7
v 3.1 2 0
v 3.1 2 -5
v 3.1 2 -5.7
v 3.1 2 -10
v 3.1 2.1 0
v 3.1 2.1 -1.1
v 3.1 2.1 -1.2
v 3.1 2.1 -5
v 3.1 2.1 -5.7
v 3.1 2.1 -6.8
v 3.1 2.1 -7.6
v 3.1 2.1 -10
v 3.1 2.2 -6.8
v 3.1 2.2 -7.6
v 3.1 2.3 -1.1
v 3.1 2.3 -1.2
v 3.3 2 -5
v 3.3 2 -5.7
v 3.3 2.3 -5
v 3.3 2.3 -5.7
v 0.9 2 0
v 0.9 2.2 0
v 1 2 0
v 1 2.2 0
v 3 2 0
v 3 2.1 0
v 3.1 2 0
v 3.1 2.1 0
v 0.8 2 -0.9
v 0.8 2.2 -0.9
v 0.9 2 -0.9
v 0.9 2.2 -0.9
v 1 2 -0.9
v 1 2.2 -0.9
v 3 2 -0.9
v 3 2.1 -0.9
v 3 2.2 -0.9
v 0.9 2.2 -1.1
v 0.9 2.3 -1.1
v 1 2.2 -1.1
v 3 2.1 -1.1
v 3 2.2 -1.1
v 3.1 2.1 -1.1
v 3.1 2.3 -1.1
v 0.9 2.2 -2.5
v 0.9 2.3 -2.5
v 1 2 -2.5
v 1 2.2 -2.5
v 3 2 -2.5
v 3 2.1 -2.5
v 3 2.3 -2.5
v 0.8 2 -3.9
v 0.8 2.1 -3.9
v 0.9 2 -3.9
v 0.9 2.1 -3.9
v 1 2 -3.9
v 1 2.1 -3.9
v 3 2 -3.9
v 3 2.1 -3.9
v 0.9 2.2 -5
v 0.9 2.3 -5
v 1 2 -5
v 1 2.2 -5
v 3 2 -5
v 3 2.1 -5
v 3.1 2 -5
v 3.1 2.1 -5
v 3.3 2 -5
v 3.3 2.3 -5
v 0.8 2 -6.8
v 0.8 2.2 -6.8
v 0.9 2 -6.8
v 0.9 2.2 -6.8
v 1 2 -6.8
v 1 2.2 -6.8
v 3 2 -6.8
v 3 2.1 -6.8
v 3.1 2.1 -6.8
v 3.1 2.2 -6.8
v 0.8 2 -8.5
v 0.8 2.2 -8.5
v 0.9 2 -8.5
v 0.9 2.2 -8.5
v 1 2 -8.5
v 1 2.2 -8.5
v 3 2 -8.5
v 3 2.1 -8.5
v 3 2.2 -8.5
v 0.9 2.2 -1.2
v 0.9 2.3 -1.2
v 1 2.2 -1.2
v 3 2.1 -1.2
v 3 2.2 -1.2
v 3.1 2.1 -1.2
v 3.1 2.3 -1.2
v 0.8 2 -1.3
v 0.8 2.2 -1.3
v 0.9 2 -1.3
v 0.9 2.2 -1.3
v 1 2 -1.3
v 1 2.2 -1.3
v 3 2 -1.3
v 3 2.1 -1.3
v 3 2.2 -1.3
v 0.9 2.2 -2.7
v 0.9 2.3 -2.7
v 1 2 -2.7
v 1 2.2 -2.7
v 3 2 -2.7
v 3 2.1 -2.7
v 3 2.3 -2.7
v 0.8 2 -4.3
v 0.8 2.1 -4.3
v 0.9 2 -4.3
v 0.9 2.1 -4.3
v 1 2 -4.3
v 1 2.1 -4.3
v 3 2 -4.3
v 3 2.1 -4.3
v 0.9 2.2 -5.7
v 0.9 2.3 -5.7
v 1 2 -5.7
v 1 2.2 -5.7
v 3 2 -5.7
v 3 2.1 -5.7
v 3.1 2 -5.7
v 3.1 2.1 -5.7
v 3.3 2 -5.7
v 3.3 2.3 -5.7
v 0.8 2 -7.6
v 0.8 2.2 -7.6
v 0.9 2 -7.6
v 0.9 2.2 -7.6
v 1 2 -7.6
v 1 2.2 -7.6
v 3 2 -7.6
v 3 2.1 -7.6
v 3.1 2.1 -7.6
v 3.1 2.2 -7.6
v 0.8 2 -9.3
v 0.8 2.2 -9.3
v 0.9 2 -9.3
v 0.9 2.2 -9.3
v 1 2 -9.3
v 1 2.2 -9.3
v 3 2 -9.3
v 3 2.1 -9.3
v 3 2.2 -9.3
v 0.9 2 -10
v 0.9 2.2 -10
v 1 2 -10
v 1 2.2 -10
v 3 2 -10
v 3 2.1 -10
v 3.1 2 -10
v 3.1 2.1 -10
v 0.9 2 0
v 1 2 0
v 3 2 0
v 3.1 2 0
v 0.8 2 -0.9
v 0.9 2 -0.9
v 1 2 -0.9
v 3 2 -0.9
v 0.8 2 -1.3
v 0.9 2 -1.3
v 1 2 -1.3
v 3 2 -1.3
v 1 2 -2.5
v 3 2 -2.5
v 1 2 -2.7
v 3 2 -2.7
v 0.8 2 -3.9
v 0.9 2 -3.9
v 1 2 -3.9
v 3 2 -3.9
v 0.8 2 -4.3
v 0.9 2 -4.3
v 1 2 -4.3
v 3 2 -4.3
v 1 2 -5
v 3 2 -5
v 3.1 2 -5
v 3.3 2 -5
v 1 2 -5.7
v 3 2 -5.7
v 3.1 2 -5.7
v 3.3 2 -5.7
v 0.8 2 -6.8
v 0.9 2 -6.8
v 1 2 -6.8
v 3 2 -6.8
v 0.8 2 -7.6
v 0.9 2 -7.6
v 1 2 -7.6
v 3 2 -7.6
v 0.8 2 -8.5
v 0.9 2 -8.5
v 1 2 -8.5
v 3 2 -8.5
v 0.8 2 -9.3
v 0.9 2 -9.3
v 1 2 -9.3
v 3 2 -9.3
v 0.9 2 -10
v 1 2 -10
v 3 2 -10
v 3.1 2 -10
v 3 2.1 0
v 3.1 2.1 0
v 3 2.1 -0.9
v 3 2.1 -1.1
v 3.1 2.1 -1.1
v 3 2.1 -1.2
v 3.1 2.1 -1.2
v 3 2.1 -1.3
v 3 2.1 -2.5
v 3 2.1 -2.7
v 0.8 2.1 -3.9
v 0.9 2.1 -3.9
v 1 2.1 -3.9
v 3 2.1 -3.9
v 0.8 2.1 -4.3
v 0.9 2.1 -4.3
v 1 2.1 -4.3
v 3 2.1 -4.3
v 3 2.1 -5
v 3.1 2.1 -5
v 3 2.1 -5.7
v 3.1 2.1 -5.7
v 3 2.1 -6.8
v 3.1 2.1 -6.8
v 3 2.1 -7.6
v 3.1 2.1 -7.6
v 3 2.1 -8.5
v 3 2.1 -9.3
v 3 2.1 -10
v 3.1 2.1 -10
v 0.9 2.2 0
v 1 2.2 0
v 0.8 2.2 -0.9
v 0.9 2.2 -0.9
v 1 2.2 -0.9
v 3 2.2 -0.9
v 0.9 2.2 -1.1
v 1 2.2 -1.1
v 3 2.2 -1.1
v 0.9 2.2 -1.2
v 1 2.2 -1.2
v 3 2.2 -1.2
v 0.8 2.2 -1.3
v 0.9 2.2 -1.3
v 1 2.2 -1.3
v 3 2.2 -1.3
v 0.9 2.2 -2.5
v 1 2.2 -2.5
v 0.9 2.2 -2.7
v 1 2.2 -2.7
v 0.9 2.2 -5
v 1 2.2 -5
v 0.9 2.2 -5.7
v 1 2.2 -5.7
v 0.8 2.2 -6.8
v 0.9 2.2 -6.8
v 1 2.2 -6.8
v 3.1 2.2 -6.8
v 0.8 2.2 -7.6
v 0.9 2.2 -7.6
v 1 2.2 -7.6
v 3.1 2.2 -7.6
v 0.8 2.2 -8.5
v 0.9 2.2 -8.5
v 1 2.2 -8.5
v 3 2.2 -8.5
v 0.8 2.2 -9.3
v 0.9 2.2 -9.3
v 1 2.2 -9.3
v 3 2.2 -9.3
v 0.9 2.2 -10
v 1 2.2 -10
v 0.9 2.3 -1.1
v 3.1 2.3 -1.1
v 0.9 2.3 -1.2
v 3.1 2.3 -1.2
v 0.9 2.3 -2.5
v 3 2.3 -2.5
v 0.9 2.3 -2.7
v 3 2.3 -2.7
v 0.9 2.3 -5
v 3.3 2.3 -5
v 0.9 2.3 -5.7
v 3.3 2.3 -5.7

# faces
f 9/2/1 4/2/1 3/2/1
f 10/2/1 4/2/1 9/2/1
f 11/2/1 2/2/1 1/2/1
f 12/2/1 2/2/1 11/2/1
f 13/2/1 6/2/1 5/2/1
f 14/2/1 6/2/1 13/2/1
f 15/2/1 8/2/1 7/2/1
f 16/2/1 8/2/1 15/2/1
f 27/1/1 20/1/1 19/1/1
f 28/1/1 22/1/1 21/1/1
f 29/1/1 18/1/1 17/1/1
f 30/1/1 18/1/1 29/1/1
f 33/1/1 28/1/1 27/1/1
f 33/1/1 27/1/1 19/1/1
f 34/1/1 28/1/1 33/1/1
f 35/1/1 28/1/1 34/1/1
f 36/1/1 22/1/1 28/1/1
f 36/1/1 28/1/1 35/1/1
f 37/1/1 22/1/1 36/1/1
f 38/1/1 22/1/1 37/1/1
f 39/1/1 24/1/1 23/1/1
f 40/1/1 24/1/1 39/1/1
f 41/1/1 26/1/1 25/1/1
f 42/1/1 26/1/1 41/1/1
f 43/2/1 32/2/1 31/2/1
f 44/2/1 32/2/1 43/2/1
f 45/2/1 35/2/1 34/2/1
f 46/2/1 35/2/1 45/2/1
f 47/2/1 37/2/1 36/2/1
f 48/2/1 37/2/1 47/2/1
f 63/1/1 50/1/1 49/1/1
f 64/1/1 50/1/1 63/1/1
f 65/1/1 52/1/1 51/1/1
f 66/1/1 52/1/1 65/1/1
f 67/1/1 54/1/1 53/1/1
f 68/1/1 54/1/1 67/1/1
f 69/1/1 56/1/1 55/1/1
f 70/1/1 56/1/1 69/1/1
f 71/1/1 58/1/1 57/1/1
f 72/1/1 58/1/1 71/1/1
f 73/1/1 60/1/1 59/1/1
f 74/1/1 60/1/1 73/1/1
f 75/1/1 62/1/1 61/1/1
f 76/1/1 62/1/1 75/1/1
f 81/1/2 82/1/2 91/1/2
f 83/1/2 84/1/2 92/1/2
f 77/1/2 78/1/2 93/1/2
f 93/1/2 78/1/2 94/1/2
f 79/1/2 80/1/2 95/1/2
f 95/1/2 80/1/2 96/1/2
f 91/1/2 92/1/2 97/1/2
f 81/1/2 91/1/2 97/1/2
f 92/1/2 84/1/2 98/1/2
f 97/1/2 92/1/2 98/1/2
f 85/1/2 86/1/2 99/1/2
f 99/1/2 86/1/2 100/1/2
f 87/1/2 88/1/2 101/1/2
f 101/1/2 88/1/2 102/1/2
f 89/1/2 90/1/2 103/1/2
f 103/1/2 90/1/2 104/1/2
f 105/2/2 106/2/2 113/2/2
f 113/2/2 106/2/2 114/2/2
f 107/2/2 108/2/2 115/2/2
f 115/2/2 108/2/2 116/2/2
f 111/2/2 112/2/2 117/2/2
f 117/2/2 112/2/2 118/2/2
f 109/2/2 110/2/2 119/2/2
f 119/2/2 110/2/2 120/2/2
f 121/1/2 122/1/2 125/1/2
f 125/1/2 122/1/2 126/1/2
f 126/1/2 122/1/2 127/1/2
f 127/1/2 122/1/2 128/1/2
f 123/1/2 124/1/2 129/1/2
f 129/1/2 124/1/2 130/1/2
f 130/1/2 124/1/2 131/1/2
f 131/1/2 124/1/2 132/1/2
f 130/2/2 131/2/2 133/2/2
f 133/2/2 131/2/2 134/2/2
f 126/2/2 127/2/2 135/2/2
f 135/2/2 127/2/2 136/2/2
f 137/2/2 138/2/2 139/2/2
f 139/2/2 138/2/2 140/2/2
f 143/1/3 142/1/3 141/1/3
f 144/1/3 142/1/3 143/1/3
f 147/1/3 146/1/3 145/1/3
f 148/1/3 146/1/3 147/1/3
f 151/2/3 150/2/3 149/2/3
f 152/2/3 150/2/3 151/2/3
f 155/2/3 154/2/3 153/2/3
f 156/2/3 154/2/3 155/2/3
f 157/2/3 154/2/3 156/2/3
f 160/2/3 159/2/3 158/2/3
f 162/2/3 159/2/3 160/2/3
f 163/2/3 162/2/3 161/2/3
f 164/2/3 159/2/3 162/2/3
f 164/2/3 162/2/3 163/2/3
f 168/2/3 166/2/3 165/2/3
f 169/2/3 168/2/3 167/2/3
f 170/2/3 168/2/3 169/2/3
f 171/2/3 166/2/3 168/2/3
f 171/2/3 168/2/3 170/2/3
f 174/2/3 173/2/3 172/2/3
f 175/2/3 173/2/3 174/2/3
f 178/2/3 177/2/3 176/2/3
f 179/2/3 177/2/3 178/2/3
f 183/2/3 181/2/3 180/2/3
f 184/2/3 183/2/3 182/2/3
f 185/2/3 183/2/3 184/2/3
f 187/2/3 183/2/3 185/2/3
f 188/2/3 187/2/3 186/2/3
f 189/2/3 181/2/3 183/2/3
f 189/2/3 187/2/3 188/2/3
f 189/2/3 183/2/3 187/2/3
f 192/2/3 191/2/3 190/2/3
f 193/2/3 191/2/3 192/2/3
f 196/2/3 195/2/3 194/2/3
f 197/2/3 195/2/3 196/2/3
f 198/2/3 195/2/3 197/2/3
f 199/2/3 195/2/3 198/2/3
f 202/2/3 201/2/3 200/2/3
f 203/2/3 201/2/3 202/2/3
f 206/2/3 205/2/3 204/2/3
f 207/2/3 205/2/3 206/2/3
f 208/2/3 205/2/3 207/2/3
f 209/2/4 210/2/4 211/2/4
f 211/2/4 210/2/4 213/2/4
f 212/2/4 213/2/4 214/2/4
f 213/2/4 210/2/4 215/2/4
f 214/2/4 213/2/4 215/2/4
f 216/2/4 217/2/4 218/2/4
f 218/2/4 217/2/4 219/2/4
f 220/2/4 221/2/4 222/2/4
f 222/2/4 221/2/4 223/2/4
f 223/2/4 221/2/4 224/2/4
f 225/2/4 226/2/4 228/2/4
f 227/2/4 228/2/4 229/2/4
f 229/2/4 228/2/4 230/2/4
f 228/2/4 226/2/4 231/2/4
f 230/2/4 228/2/4 231/2/4
f 232/2/4 233/2/4 234/2/4
f 234/2/4 233/2/4 235/2/4
f 236/2/4 237/2/4 238/2/4
f 238/2/4 237/2/4 239/2/4
f 240/2/4 241/2/4 243/2/4
f 242/2/4 243/2/4 244/2/4
f 244/2/4 243/2/4 245/2/4
f 245/2/4 243/2/4 247/2/4
f 246/2/4 247/2/4 248/2/4
f 243/2/4 241/2/4 249/2/4
f 248/2/4 247/2/4 249/2/4
f 247/2/4 243/2/4 249/2/4
f 250/2/4 251/2/4 252/2/4
f 252/2/4 251/2/4 253/2/4
f 254/2/4 255/2/4 256/2/4
f 256/2/4 255/2/4 257/2/4
f 257/2/4 255/2/4 258/2/4
f 258/2/4 255/2/4 259/2/4
f 260/2/4 261/2/4 262/2/4
f 262/2/4 261/2/4 263/2/4
f 264/2/4 265/2/4 266/2/4
f 266/2/4 265/2/4 267/2/4
f 267/2/4 265/2/4 268/2/4
f 269/1/4 270/1/4 271/1/4
f 271/1/4 270/1/4 272/1/4
f 273/1/4 274/1/4 275/1/4
f 275/1/4 274/1/4 276/1/4
f 282/1/5 278/1/5 277/1/5
f 283/1/5 278/1/5 282/1/5
f 284/1/5 280/1/5 279/1/5
f 285/2/5 282/2/5 281/2/5
f 286/1/5 283/1/5 282/1/5
f 286/2/5 282/2/5 285/2/5
f 287/2/5 284/2/5 283/2/5
f 287/1/5 283/1/5 286/1/5
f 288/1/5 280/1/5 284/1/5
f 288/2/5 284/2/5 287/2/5
f 289/1/5 287/1/5 286/1/5
f 290/1/5 280/1/5 288/1/5
f 291/1/5 289/1/5 286/1/5
f 291/2/5 290/2/5 289/2/5
f 292/1/5 280/1/5 290/1/5
f 292/2/5 290/2/5 291/2/5
f 294/1/5 291/1/5 286/1/5
f 295/1/5 291/1/5 294/1/5
f 296/1/5 280/1/5 292/1/5
f 297/2/5 294/2/5 293/2/5
f 298/1/5 295/1/5 294/1/5
f 298/2/5 294/2/5 297/2/5
f 299/2/5 296/2/5 295/2/5
f 299/1/5 295/1/5 298/1/5
f 300/1/5 280/1/5 296/1/5
f 300/2/5 296/2/5 299/2/5
f 301/1/5 299/1/5 298/1/5
f 302/1/5 280/1/5 300/1/5
f 303/1/5 280/1/5 302/1/5
f 305/1/5 301/1/5 298/1/5
f 305/2/5 302/2/5 301/2/5
f 306/1/5 303/1/5 302/1/5
f 306/2/5 302/2/5 305/2/5
f 307/2/5 304/2/5 303/2/5
f 307/1/5 303/1/5 306/1/5
f 308/2/5 304/2/5 307/2/5
f 310/1/5 305/1/5 298/1/5
f 311/1/5 305/1/5 310/1/5
f 312/1/5 307/1/5 306/1/5
f 313/2/5 310/2/5 309/2/5
f 314/1/5 311/1/5 310/1/5
f 314/2/5 310/2/5 313/2/5
f 315/2/5 312/2/5 311/2/5
f 315/1/5 311/1/5 314/1/5
f 316/1/5 307/1/5 312/1/5
f 316/2/5 312/2/5 315/2/5
f 318/1/5 315/1/5 314/1/5
f 319/1/5 315/1/5 318/1/5
f 320/1/5 307/1/5 316/1/5
f 321/2/5 318/2/5 317/2/5
f 322/1/5 319/1/5 318/1/5
f 322/2/5 318/2/5 321/2/5
f 323/2/5 320/2/5 319/2/5
f 323/1/5 319/1/5 322/1/5
f 324/1/5 307/1/5 320/1/5
f 324/2/5 320/2/5 323/2/5
f 325/1/5 323/1/5 322/1/5
f 326/1/5 323/1/5 325/1/5
f 327/1/5 307/1/5 324/1/5
f 328/1/5 307/1/5 327/1/5
f 329/1/6 330/1/6 331/1/6
f 331/1/6 330/1/6 332/1/6
f 332/1/6 330/1/6 333/1/6
f 334/1/6 335/1/6 336/1/6
f 336/1/6 335/1/6 337/1/6
f 337/1/6 335/1/6 338/1/6
f 338/1/6 335/1/6 342/1/6
f 339/2/6 340/2/6 343/2/6
f 343/2/6 340/2/6 344/2/6
f 341/2/6 342/2/6 345/2/6
f 342/1/6 335/1/6 346/1/6
f 345/2/6 342/2/6 346/2/6
f 346/1/6 335/1/6 347/1/6
f 347/1/6 335/1/6 348/1/6
f 349/1/6 350/1/6 351/1/6
f 351/1/6 350/1/6 352/1/6
f 353/1/6 354/1/6 355/1/6
f 355/1/6 354/1/6 356/1/6
f 356/1/6 354/1/6 357/1/6
f 357/1/6 354/1/6 358/1/6
f 359/1/6 360/1/6 362/1/6
f 362/1/6 360/1/6 363/1/6
f 361/2/6 362/2/6 365/2/6
f 362/1/6 363/1/6 365/1/6
f 363/2/6 364/2/6 366/2/6
f 365/1/6 363/1/6 366/1/6
f 366/2/6 364/2/6 367/2/6
f 361/2/6 365/2/6 368/2/6
f 361/2/6 368/2/6 371/2/6
f 368/1/6 369/1/6 372/1/6
f 371/2/6 368/2/6 372/2/6
f 369/2/6 370/2/6 373/2/6
f 372/1/6 369/1/6 373/1/6
f 373/2/6 370/2/6 374/2/6
f 372/1/6 373/1/6 375/1/6
f 375/1/6 373/1/6 376/1/6
f 377/1/6 378/1/6 379/1/6
f 379/1/6 378/1/6 380/1/6
f 381/1/6 382/1/6 384/1/6
f 384/1/6 382/1/6 385/1/6
f 383/2/6 384/2/6 387/2/6
f 384/1/6 385/1/6 388/1/6
f 387/2/6 384/2/6 388/2/6
f 385/2/6 386/2/6 389/2/6
f 388/1/6 385/1/6 389/1/6
f 389/2/6 386/2/6 390/2/6
f 388/1/6 389/1/6 392/1/6
f 392/1/6 389/1/6 393/1/6
f 391/2/6 392/2/6 395/2/6
f 392/1/6 393/1/6 396/1/6
f 395/2/6 392/2/6 396/2/6
f 393/2/6 394/2/6 397/2/6
f 396/1/6 393/1/6 397/1/6
f 397/2/6 394/2/6 398/2/6
f 396/1/6 397/1/6 399/1/6
f 399/1/6 397/1/6 400/1/6
f 401/2/6 402/2/6 403/2/6
f 403/2/6 402/2/6 404/2/6
f 405/2/6 406/2/6 407/2/6
f 407/2/6 406/2/6 408/2/6
f 409/2/6 410/2/6 411/2/6
f 411/2/6 410/2/6 412/2/6
